<?xml version="1.0" encoding="utf-8"?>
<!-- Generator: Adobe Illustrator 22.0.1, SVG Export Plug-In . SVG Version: 6.00 Build 0)  -->
<svg version="1.1" id="Layer_17" xmlns="http://www.w3.org/2000/svg" xmlns:xlink="http://www.w3.org/1999/xlink" x="0px" y="0px"
	 viewBox="0 0 80 80" style="enable-background:new 0 0 80 80;" xml:space="preserve">
<style type="text/css">
	.st0{display:none;fill:url(#SVGID_1_);}
	.st1{display:none;fill:url(#SVGID_2_);}
	.st2{fill:#4867AA;}
	.st3{clip-path:url(#SVGID_4_);fill:url(#SVGID_5_);}
	.st4{clip-path:url(#SVGID_7_);fill:url(#SVGID_8_);}
	.st5{clip-path:url(#SVGID_10_);fill:url(#SVGID_11_);}
	.st6{clip-path:url(#SVGID_13_);fill:url(#SVGID_14_);}
	.st7{opacity:0.12;enable-background:new    ;}
	.st8{fill:#FFFFFF;}
	.st9{opacity:0.4;fill:#4867AA;enable-background:new    ;}
</style>
<g>
	
		<linearGradient id="SVGID_1_" gradientUnits="userSpaceOnUse" x1="42" y1="728" x2="112" y2="798" gradientTransform="matrix(1 0 0 1 0 -688)">
		<stop  offset="0" style="stop-color:#000000;stop-opacity:0.4"/>
		<stop  offset="0.8" style="stop-color:#000000;stop-opacity:0"/>
	</linearGradient>
	<polygon class="st0" points="112,55.9 69.1,12.9 14.9,67.1 57.9,110 112,110 	"/>
	
		<linearGradient id="SVGID_2_" gradientUnits="userSpaceOnUse" x1="42" y1="728" x2="112" y2="798" gradientTransform="matrix(1 0 0 1 0 -688)">
		<stop  offset="0" style="stop-color:#4867AA;stop-opacity:0.6"/>
		<stop  offset="0.5" style="stop-color:#4867AA;stop-opacity:0"/>
	</linearGradient>
	<polygon class="st1" points="112,55.9 69.1,12.9 14.9,67.1 57.9,110 112,110 	"/>
	<path class="st2" d="M62,70H22c-5.5,0-10-4.5-10-10V20c0-5.5,4.5-10,10-10h40c5.5,0,10,4.5,10,10v40C72,65.5,67.5,70,62,70z"/>
	<g>
		<g>
			<g>
				<defs>
					<path id="SVGID_3_" d="M62,11c5,0,9,4,9,9v40c0,5-4,9-9,9H22c-5,0-9-4-9-9V20c0-5,4-9,9-9H62 M62,10H22c-5.5,0-10,4.5-10,10v40
						c0,5.5,4.5,10,10,10h40c5.5,0,10-4.5,10-10V20C72,14.5,67.5,10,62,10L62,10z"/>
				</defs>
				<clipPath id="SVGID_4_">
					<use xlink:href="#SVGID_3_"  style="overflow:visible;"/>
				</clipPath>
				
					<linearGradient id="SVGID_5_" gradientUnits="userSpaceOnUse" x1="-8" y1="678" x2="92" y2="778" gradientTransform="matrix(1 0 0 1 0 -688)">
					<stop  offset="0" style="stop-color:#FFFFFF;stop-opacity:0.8"/>
					<stop  offset="0.6" style="stop-color:#FFFFFF;stop-opacity:0"/>
				</linearGradient>
				<rect x="-8" y="-10" class="st3" width="100" height="100"/>
			</g>
		</g>
	</g>
	<g>
		<g>
			<g>
				<defs>
					<path id="SVGID_6_" d="M62,11c5,0,9,4,9,9v40c0,5-4,9-9,9H22c-5,0-9-4-9-9V20c0-5,4-9,9-9H62 M62,10H22c-5.5,0-10,4.5-10,10v40
						c0,5.5,4.5,10,10,10h40c5.5,0,10-4.5,10-10V20C72,14.5,67.5,10,62,10L62,10z"/>
				</defs>
				<clipPath id="SVGID_7_">
					<use xlink:href="#SVGID_6_"  style="overflow:visible;"/>
				</clipPath>
				
					<linearGradient id="SVGID_8_" gradientUnits="userSpaceOnUse" x1="-8" y1="678" x2="92" y2="778" gradientTransform="matrix(1 0 0 1 0 -688)">
					<stop  offset="0.4" style="stop-color:#000000;stop-opacity:0"/>
					<stop  offset="1" style="stop-color:#000000;stop-opacity:0.2"/>
				</linearGradient>
				<rect x="-8" y="-10" class="st4" width="100" height="100"/>
			</g>
		</g>
	</g>
	<g>
		<g>
			<g>
				<defs>
					<path id="SVGID_9_" d="M22,69c-5,0-9-4-9-9V20c0-5,4-9,9-9h40c5,0,9,4,9,9v40c0,5-4,9-9,9H22z"/>
				</defs>
				<clipPath id="SVGID_10_">
					<use xlink:href="#SVGID_9_"  style="overflow:visible;"/>
				</clipPath>
				
					<radialGradient id="SVGID_11_" cx="17" cy="703" r="45" gradientTransform="matrix(1 0 0 1 0 -688)" gradientUnits="userSpaceOnUse">
					<stop  offset="0" style="stop-color:#FFFFFF;stop-opacity:0.2"/>
					<stop  offset="1" style="stop-color:#FFFFFF;stop-opacity:0"/>
				</radialGradient>
				<circle class="st5" cx="17" cy="15" r="45"/>
			</g>
		</g>
	</g>
	<g>
		<g>
			<g>
				<defs>
					<path id="SVGID_12_" d="M62,69.1H22c-5,0-9.1-4.1-9.1-9.1V20c0-5,4.1-9.1,9.1-9.1h40c5,0,9.1,4.1,9.1,9.1v40
						C71.1,65,67,69.1,62,69.1z M22,11.1c-4.9,0-8.9,4-8.9,8.9v40c0,4.9,4,8.9,8.9,8.9h40c4.9,0,8.9-4,8.9-8.9V20
						c0-4.9-4-8.9-8.9-8.9H22z"/>
				</defs>
				<clipPath id="SVGID_13_">
					<use xlink:href="#SVGID_12_"  style="overflow:visible;"/>
				</clipPath>
				
					<linearGradient id="SVGID_14_" gradientUnits="userSpaceOnUse" x1="-8" y1="678" x2="92" y2="778" gradientTransform="matrix(1 0 0 1 0 -688)">
					<stop  offset="0.2" style="stop-color:#FFFFFF;stop-opacity:0.8"/>
					<stop  offset="0.7" style="stop-color:#FFFFFF;stop-opacity:0"/>
				</linearGradient>
				<rect x="-8" y="-10" class="st6" width="100" height="100"/>
			</g>
		</g>
	</g>
	<path class="st7" d="M52.4,20l-7.9,8.7L37.6,60l10,10H62c5.5,0,10-4.5,10-10V39.6L52.4,20z"/>
	<path id="f" class="st8" d="M45,60V42.2h5.9l1.5-7.4H45v-3c0-3,1.5-4.4,4.4-4.4h3V20c-1.5,0-3.3,0-5.9,0c-5.4,0-8.9,4.3-8.9,10.4
		v4.4h-5.9v7.4h5.9V60H45z"/>
	<path id="f_1_" class="st9" d="M50.2,41.2c-0.6,0.3-5.6,0-5.9,0.3c-0.3,0.3,0.1,17.1-0.4,17.6c-0.4,0.4-6.4,0.9-6.4,0.9H45V42.2
		h5.9l1.5-7.4C52.4,34.8,50.8,40.9,50.2,41.2z"/>
</g>
</svg>
