<?xml version="1.0" encoding="utf-8"?>
<!-- Generator: Adobe Illustrator 22.0.1, SVG Export Plug-In . SVG Version: 6.00 Build 0)  -->
<svg version="1.1" id="Layer_17" xmlns="http://www.w3.org/2000/svg" xmlns:xlink="http://www.w3.org/1999/xlink" x="0px" y="0px"
	 viewBox="0 0 80 80" style="enable-background:new 0 0 80 80;" xml:space="preserve">
<style type="text/css">
	.st0{display:none;fill:url(#SVGID_1_);}
	.st1{display:none;fill:url(#SVGID_2_);}
	.st2{fill:#006595;}
	.st3{clip-path:url(#SVGID_4_);fill:url(#SVGID_5_);}
	.st4{clip-path:url(#SVGID_7_);fill:url(#SVGID_8_);}
	.st5{clip-path:url(#SVGID_10_);fill:url(#SVGID_11_);}
	.st6{clip-path:url(#SVGID_13_);fill:url(#SVGID_14_);}
	.st7{opacity:0.12;enable-background:new    ;}
	.st8{fill:#FFFFFF;}
	.st9{opacity:0.4;fill:#006595;enable-background:new    ;}
</style>
<g>
	
		<linearGradient id="SVGID_1_" gradientUnits="userSpaceOnUse" x1="38" y1="731" x2="108" y2="801" gradientTransform="matrix(1 0 0 1 0 -692)">
		<stop  offset="0" style="stop-color:#000000;stop-opacity:0.4"/>
		<stop  offset="0.8" style="stop-color:#000000;stop-opacity:0"/>
	</linearGradient>
	<polygon class="st0" points="108,54.9 65.1,11.9 10.9,66.1 53.9,109 108,109 	"/>
	
		<linearGradient id="SVGID_2_" gradientUnits="userSpaceOnUse" x1="38" y1="731" x2="108" y2="801" gradientTransform="matrix(1 0 0 1 0 -692)">
		<stop  offset="0" style="stop-color:#006595;stop-opacity:0.6"/>
		<stop  offset="0.5" style="stop-color:#006595;stop-opacity:0"/>
	</linearGradient>
	<polygon class="st1" points="108,54.9 65.1,11.9 10.9,66.1 53.9,109 108,109 	"/>
	<path class="st2" d="M58,69H18c-5.5,0-10-4.5-10-10V19c0-5.5,4.5-10,10-10h40c5.5,0,10,4.5,10,10v40C68,64.5,63.5,69,58,69z"/>
	<g>
		<g>
			<g>
				<defs>
					<path id="SVGID_3_" d="M58,10c5,0,9,4,9,9v40c0,5-4,9-9,9H18c-5,0-9-4-9-9V19c0-5,4-9,9-9H58 M58,9H18C12.5,9,8,13.5,8,19v40
						c0,5.5,4.5,10,10,10h40c5.5,0,10-4.5,10-10V19C68,13.5,63.5,9,58,9L58,9z"/>
				</defs>
				<clipPath id="SVGID_4_">
					<use xlink:href="#SVGID_3_"  style="overflow:visible;"/>
				</clipPath>
				
					<linearGradient id="SVGID_5_" gradientUnits="userSpaceOnUse" x1="-12" y1="681" x2="88" y2="781" gradientTransform="matrix(1 0 0 1 0 -692)">
					<stop  offset="0" style="stop-color:#FFFFFF;stop-opacity:0.8"/>
					<stop  offset="0.6" style="stop-color:#FFFFFF;stop-opacity:0"/>
				</linearGradient>
				<rect x="-12" y="-11" class="st3" width="100" height="100"/>
			</g>
		</g>
	</g>
	<g>
		<g>
			<g>
				<defs>
					<path id="SVGID_6_" d="M58,10c5,0,9,4,9,9v40c0,5-4,9-9,9H18c-5,0-9-4-9-9V19c0-5,4-9,9-9H58 M58,9H18C12.5,9,8,13.5,8,19v40
						c0,5.5,4.5,10,10,10h40c5.5,0,10-4.5,10-10V19C68,13.5,63.5,9,58,9L58,9z"/>
				</defs>
				<clipPath id="SVGID_7_">
					<use xlink:href="#SVGID_6_"  style="overflow:visible;"/>
				</clipPath>
				
					<linearGradient id="SVGID_8_" gradientUnits="userSpaceOnUse" x1="-12" y1="681" x2="88" y2="781" gradientTransform="matrix(1 0 0 1 0 -692)">
					<stop  offset="0.4" style="stop-color:#000000;stop-opacity:0"/>
					<stop  offset="1" style="stop-color:#000000;stop-opacity:0.2"/>
				</linearGradient>
				<rect x="-12" y="-11" class="st4" width="100" height="100"/>
			</g>
		</g>
	</g>
	<g>
		<g>
			<g>
				<defs>
					<path id="SVGID_9_" d="M18,68c-5,0-9-4-9-9V19c0-5,4-9,9-9h40c5,0,9,4,9,9v40c0,5-4,9-9,9H18z"/>
				</defs>
				<clipPath id="SVGID_10_">
					<use xlink:href="#SVGID_9_"  style="overflow:visible;"/>
				</clipPath>
				
					<radialGradient id="SVGID_11_" cx="13" cy="706" r="45" gradientTransform="matrix(1 0 0 1 0 -692)" gradientUnits="userSpaceOnUse">
					<stop  offset="0" style="stop-color:#FFFFFF;stop-opacity:0.2"/>
					<stop  offset="1" style="stop-color:#FFFFFF;stop-opacity:0"/>
				</radialGradient>
				<circle class="st5" cx="13" cy="14" r="45"/>
			</g>
		</g>
	</g>
	<g>
		<g>
			<g>
				<defs>
					<path id="SVGID_12_" d="M58,68.1H18c-5,0-9.1-4.1-9.1-9.1V19c0-5,4.1-9.1,9.1-9.1h40c5,0,9.1,4.1,9.1,9.1v40
						C67.1,64,63,68.1,58,68.1z M18,10.1c-4.9,0-8.9,4-8.9,8.9v40c0,4.9,4,8.9,8.9,8.9h40c4.9,0,8.9-4,8.9-8.9V19
						c0-4.9-4-8.9-8.9-8.9H18z"/>
				</defs>
				<clipPath id="SVGID_13_">
					<use xlink:href="#SVGID_12_"  style="overflow:visible;"/>
				</clipPath>
				
					<linearGradient id="SVGID_14_" gradientUnits="userSpaceOnUse" x1="-12" y1="681" x2="88" y2="781" gradientTransform="matrix(1 0 0 1 0 -692)">
					<stop  offset="0.2" style="stop-color:#FFFFFF;stop-opacity:0.8"/>
					<stop  offset="0.7" style="stop-color:#FFFFFF;stop-opacity:0"/>
				</linearGradient>
				<rect x="-12" y="-11" class="st6" width="100" height="100"/>
			</g>
		</g>
	</g>
	<path class="st7" d="M57.1,19.8C56.6,19.3,55.9,19,55,19H38H21c-0.8,0-1.6,0.3-2.1,0.8S18,21,18,21.8V39v17.1c0,0.8,0.3,1.5,0.9,2
		L29.7,69H58c5.5,0,10-4.5,10-10V30.7L57.1,19.8z"/>
	<path class="st8" d="M55,19H21c-1.6,0-3,1.3-3,2.9v34.2c0,1.6,1.3,2.9,3,2.9h34c1.6,0,3-1.3,3-2.9V21.9C58,20.3,56.7,19,55,19z
		 M29.9,53.1H24V34h5.9V53.1z M26.9,31.4c-1.9,0-3.4-1.5-3.4-3.4s1.5-3.4,3.4-3.4s3.4,1.5,3.4,3.4C30.3,29.8,28.8,31.4,26.9,31.4z
		 M52.1,53.1h-5.9v-9.3c0-2.2,0-5.1-3.1-5.1s-3.6,2.4-3.6,4.9V53h-5.9V34h5.7v2.6h0.1c0.8-1.5,2.7-3.1,5.6-3.1c6,0,7.1,4,7.1,9.1
		C52.1,42.6,52.1,53.1,52.1,53.1z"/>
	<path class="st9" d="M18.5,57.7C19,58.5,19.9,59,21,59h34c1.6,0,3-1.3,3-2.9c0,0-0.7,0.8-8.7,1.1C21,58.3,18.5,57.7,18.5,57.7z"/>
</g>
</svg>
