<?xml version="1.0" encoding="utf-8"?>
<!-- Generator: Adobe Illustrator 22.0.1, SVG Export Plug-In . SVG Version: 6.00 Build 0)  -->
<svg version="1.1" id="Layer_1" xmlns="http://www.w3.org/2000/svg" xmlns:xlink="http://www.w3.org/1999/xlink" x="0px" y="0px"
	 viewBox="0 0 1362.9 391.4" style="enable-background:new 0 0 1362.9 391.4;" xml:space="preserve">
<style type="text/css">
	.st0{fill:#FFFFFF;}
	.st1{fill:none;stroke:#95989A;stroke-width:5;}
	.st2{fill:#999999;}
	.st3{fill:#E6E6E6;}
	.st4{font-family:'Quicksand-Medium';}
	.st5{font-size:150px;}
</style>
<g id="Group_2" transform="translate(97.384 238.762) rotate(8)">
	<g transform="matrix(0.99, -0.14, 0.14, 0.99, -129.67, -222.89)">
		<g id="Rectangle_2-2" transform="translate(97.38 238.76) rotate(8)">
			<path class="st0" d="M-71.6-221.4l122.1-18.1c15.6-2.3,30.2,8.5,32.5,24.1l46.2,312.2c2.3,15.6-8.5,30.2-24.1,32.5l-122.1,18.1
				c-15.6,2.3-30.2-8.5-32.5-24.1l-46.2-312.2C-98.1-204.6-87.3-219.1-71.6-221.4z"/>
			<path class="st1" d="M-71.2-218.6l122.1-18.1c14.1-2.1,27.2,7.6,29.2,21.7l46.2,312.2c2.1,14.1-7.6,27.2-21.7,29.2l-122.1,18.1
				c-14.1,2.1-27.2-7.6-29.2-21.7l-46.2-312.2C-95-203.4-85.3-216.5-71.2-218.6z"/>
		</g>
	</g>
	<path id="Rectangle_4" class="st2" d="M-47.8-197.9l80.4-11.9c15.6-2.3,30.2,8.5,32.5,24.1l35.3,238.4c2.3,15.6-8.5,30.2-24.1,32.5
		L-4.1,97.1c-15.6,2.3-30.2-8.5-32.5-24.1l-35.3-238.4C-74.2-181-63.4-195.6-47.8-197.9z"/>
	
		<ellipse id="Ellipse_2" transform="matrix(-0.9892 0.1464 -0.1464 -0.9892 94.9647 220.2943)" class="st2" cx="39.4" cy="113.6" rx="15.1" ry="16.2"/>
</g>
<text transform="matrix(1 0 0 1 279.4346 249.9479)" class="st3 st4 st5">Be my IT-guide</text>
</svg>
