<?xml version="1.0" encoding="utf-8"?>
<!-- Generator: Adobe Illustrator 22.0.1, SVG Export Plug-In . SVG Version: 6.00 Build 0)  -->
<svg version="1.1" id="Layer_17" xmlns="http://www.w3.org/2000/svg" xmlns:xlink="http://www.w3.org/1999/xlink" x="0px" y="0px"
	 viewBox="0 0 80 80" style="enable-background:new 0 0 80 80;" xml:space="preserve">
<style type="text/css">
	.st0{display:none;fill:url(#SVGID_1_);}
	.st1{display:none;fill:url(#SVGID_2_);}
	.st2{fill:#1DA1F2;}
	.st3{clip-path:url(#SVGID_4_);fill:url(#SVGID_5_);}
	.st4{clip-path:url(#SVGID_7_);fill:url(#SVGID_8_);}
	.st5{clip-path:url(#SVGID_10_);fill:url(#SVGID_11_);}
	.st6{clip-path:url(#SVGID_13_);fill:url(#SVGID_14_);}
	.st7{opacity:0.12;enable-background:new    ;}
	.st8{fill:#FFFFFF;}
	.st9{opacity:0.4;fill:#1DA1F2;enable-background:new    ;}
</style>
<g>
	
		<linearGradient id="SVGID_1_" gradientUnits="userSpaceOnUse" x1="41" y1="729" x2="111" y2="799" gradientTransform="matrix(1 0 0 1 0 -688)">
		<stop  offset="0" style="stop-color:#000000;stop-opacity:0.4"/>
		<stop  offset="0.8" style="stop-color:#000000;stop-opacity:0"/>
	</linearGradient>
	<polygon class="st0" points="111,56.9 68.1,13.9 13.9,68.1 56.9,111 111,111 	"/>
	
		<linearGradient id="SVGID_2_" gradientUnits="userSpaceOnUse" x1="41" y1="729" x2="111" y2="799" gradientTransform="matrix(1 0 0 1 0 -688)">
		<stop  offset="0" style="stop-color:#1DA1F2;stop-opacity:0.6"/>
		<stop  offset="0.5" style="stop-color:#1DA1F2;stop-opacity:0"/>
	</linearGradient>
	<polygon class="st1" points="111,56.9 68.1,13.9 13.9,68.1 56.9,111 111,111 	"/>
	<path class="st2" d="M61,71H21c-5.5,0-10-4.5-10-10V21c0-5.5,4.5-10,10-10h40c5.5,0,10,4.5,10,10v40C71,66.5,66.5,71,61,71z"/>
	<g>
		<g>
			<g>
				<defs>
					<path id="SVGID_3_" d="M61,12c5,0,9,4,9,9v40c0,5-4,9-9,9H21c-5,0-9-4-9-9V21c0-5,4-9,9-9H61 M61,11H21c-5.5,0-10,4.5-10,10v40
						c0,5.5,4.5,10,10,10h40c5.5,0,10-4.5,10-10V21C71,15.5,66.5,11,61,11L61,11z"/>
				</defs>
				<clipPath id="SVGID_4_">
					<use xlink:href="#SVGID_3_"  style="overflow:visible;"/>
				</clipPath>
				
					<linearGradient id="SVGID_5_" gradientUnits="userSpaceOnUse" x1="-9" y1="679" x2="91" y2="779" gradientTransform="matrix(1 0 0 1 0 -688)">
					<stop  offset="0" style="stop-color:#FFFFFF;stop-opacity:0.8"/>
					<stop  offset="0.6" style="stop-color:#FFFFFF;stop-opacity:0"/>
				</linearGradient>
				<rect x="-9" y="-9" class="st3" width="100" height="100"/>
			</g>
		</g>
	</g>
	<g>
		<g>
			<g>
				<defs>
					<path id="SVGID_6_" d="M61,12c5,0,9,4,9,9v40c0,5-4,9-9,9H21c-5,0-9-4-9-9V21c0-5,4-9,9-9H61 M61,11H21c-5.5,0-10,4.5-10,10v40
						c0,5.5,4.5,10,10,10h40c5.5,0,10-4.5,10-10V21C71,15.5,66.5,11,61,11L61,11z"/>
				</defs>
				<clipPath id="SVGID_7_">
					<use xlink:href="#SVGID_6_"  style="overflow:visible;"/>
				</clipPath>
				
					<linearGradient id="SVGID_8_" gradientUnits="userSpaceOnUse" x1="-9" y1="679" x2="91" y2="779" gradientTransform="matrix(1 0 0 1 0 -688)">
					<stop  offset="0.4" style="stop-color:#000000;stop-opacity:0"/>
					<stop  offset="1" style="stop-color:#000000;stop-opacity:0.2"/>
				</linearGradient>
				<rect x="-9" y="-9" class="st4" width="100" height="100"/>
			</g>
		</g>
	</g>
	<g>
		<g>
			<g>
				<defs>
					<path id="SVGID_9_" d="M21,70c-5,0-9-4-9-9V21c0-5,4-9,9-9h40c5,0,9,4,9,9v40c0,5-4,9-9,9H21z"/>
				</defs>
				<clipPath id="SVGID_10_">
					<use xlink:href="#SVGID_9_"  style="overflow:visible;"/>
				</clipPath>
				
					<radialGradient id="SVGID_11_" cx="16" cy="704" r="45" gradientTransform="matrix(1 0 0 1 0 -688)" gradientUnits="userSpaceOnUse">
					<stop  offset="0" style="stop-color:#FFFFFF;stop-opacity:0.2"/>
					<stop  offset="1" style="stop-color:#FFFFFF;stop-opacity:0"/>
				</radialGradient>
				<circle class="st5" cx="16" cy="16" r="45"/>
			</g>
		</g>
	</g>
	<g>
		<g>
			<g>
				<defs>
					<path id="SVGID_12_" d="M61,70.1H21c-5,0-9.1-4.1-9.1-9.1V21c0-5,4.1-9.1,9.1-9.1h40c5,0,9.1,4.1,9.1,9.1v40
						C70.1,66,66,70.1,61,70.1z M21,12.1c-4.9,0-8.9,4-8.9,8.9v40c0,4.9,4,8.9,8.9,8.9h40c4.9,0,8.9-4,8.9-8.9V21
						c0-4.9-4-8.9-8.9-8.9H21z"/>
				</defs>
				<clipPath id="SVGID_13_">
					<use xlink:href="#SVGID_12_"  style="overflow:visible;"/>
				</clipPath>
				
					<linearGradient id="SVGID_14_" gradientUnits="userSpaceOnUse" x1="-9" y1="679" x2="91" y2="779" gradientTransform="matrix(1 0 0 1 0 -688)">
					<stop  offset="0.2" style="stop-color:#FFFFFF;stop-opacity:0.8"/>
					<stop  offset="0.7" style="stop-color:#FFFFFF;stop-opacity:0"/>
				</linearGradient>
				<rect x="-9" y="-9" class="st6" width="100" height="100"/>
			</g>
		</g>
	</g>
	<path class="st7" d="M59.9,25.3l-6.7,6.3L47,50.3L33.1,56L21,53.6L38.4,71H61c5.5,0,10-4.5,10-10V36.5L59.9,25.3z"/>
	<path class="st8" d="M61,28.6c-1.5,0.7-3.1,1.1-4.7,1.3c1.7-1,3-2.6,3.6-4.5c-1.6,0.9-3.3,1.6-5.2,2c-1.5-1.6-3.6-2.6-6-2.6
		c-4.5,0-8.2,3.7-8.2,8.2c0,0.6,0.1,1.3,0.2,1.9c-6.8-0.3-12.9-3.6-16.9-8.6c-0.7,1.2-1.1,2.6-1.1,4.1c0,2.8,1.4,5.4,3.6,6.8
		c-1.3,0-2.6-0.4-3.7-1v0.1c0,4,2.8,7.3,6.6,8c-0.7,0.2-1.4,0.3-2.2,0.3c-0.5,0-1-0.1-1.5-0.1c1,3.3,4.1,5.6,7.7,5.7
		c-2.8,2.2-6.3,3.5-10.2,3.5c-0.7,0-1.3,0-2-0.1c3.6,2.3,7.9,3.7,12.6,3.7c15.1,0,23.3-12.5,23.3-23.3c0-0.4,0-0.7,0-1.1
		C58.5,31.7,59.9,30.2,61,28.6z"/>
	<path class="st9" d="M58,31c-1.1,0.8-2.1,1.3-2.1,1.3v0.5c0,0.3,0,0.7,0,1c0,11-8.4,22.3-22.3,22.3c-2.9,0-7.7-0.8-12.6-2.7
		c3.6,2.3,7.9,3.7,12.6,3.7c15.1,0,23.3-12.5,23.3-23.3c0-0.4,0-0.7,0-1.1c1.6-1.2,3-2.6,4.1-4.2C61,28.6,59.3,30.1,58,31z"/>
</g>
</svg>
